<?xml version="1.0" encoding="utf-8"?>
<!-- Generator: Adobe Illustrator 25.4.1, SVG Export Plug-In . SVG Version: 6.00 Build 0)  -->
<svg version="1.1" xmlns="http://www.w3.org/2000/svg" xmlns:xlink="http://www.w3.org/1999/xlink" x="0px" y="0px"
	 viewBox="0 0 244.8 202.6" style="enable-background:new 0 0 244.8 202.6;" xml:space="preserve">
<style type="text/css">
	.st0{fill:#E88BBA;}
	.st1{fill:#F276A0;}
	.st2{fill:#EE3C96;}
</style>
<g id="Layer_2">
</g>
<g id="Layer_1">
	<g id="New_Symbol">
	</g>
	<g id="New_Symbol_3">
	</g>
	<g id="XMLID_3913_">
		<g id="XMLID_4557_">
			<path id="XMLID_2410_" class="st0" d="M157.7,146.9c0,0,0.3-0.2,0.8-0.4c0.3-0.1,0.6-0.3,1-0.5c0.4-0.2,0.8-0.4,1.3-0.6
				c0.5-0.2,1.1-0.4,1.7-0.7c0.6-0.2,1.3-0.4,2.1-0.6c0.8-0.2,1.6-0.3,2.4-0.5c0.9-0.2,1.8-0.2,2.7-0.4c1-0.1,2-0.1,3-0.2
				c1,0,2.1,0,3.2,0c2.2,0.1,4.5,0.3,6.8,0.6c1.2,0.2,2.3,0.3,3.5,0.6c1.2,0.2,2.3,0.4,3.5,0.7c2.3,0.5,4.7,1,7,1.5
				c2.3,0.6,4.6,1.1,6.8,1.5c1.1,0.2,2.2,0.4,3.3,0.7c1.1,0.2,2.1,0.4,3.2,0.6c2.1,0.3,4.1,0.6,5.9,0.6c1.9,0.1,3.6,0,5.2-0.2
				c1.6-0.2,3-0.6,4.3-1c1.3-0.5,2.3-1.1,3.2-1.6c0.4-0.3,0.8-0.5,1.1-0.8c0.3-0.2,0.6-0.5,0.8-0.7c0.4-0.4,0.7-0.6,0.7-0.6
				s-0.1,0.3-0.3,0.9c-0.1,0.3-0.2,0.6-0.4,1c-0.2,0.4-0.4,0.9-0.7,1.4c-0.6,1-1.4,2.2-2.6,3.3c-1.2,1.2-2.8,2.3-4.6,3.1
				c-1.9,0.9-4,1.6-6.3,2c-2.3,0.4-4.7,0.6-7.1,0.6c-1.2,0-2.4-0.1-3.7-0.2c-1.2-0.1-2.5-0.2-3.7-0.4c-2.5-0.3-4.9-0.9-7.3-1.4
				c-2.4-0.6-4.8-1.2-7-1.8c-1.1-0.3-2.3-0.6-3.4-1c-1.1-0.3-2.2-0.6-3.2-1c-2.1-0.6-4.1-1.2-6.1-1.7c-1.9-0.5-3.8-1-5.5-1.3
				c-1.7-0.4-3.3-0.6-4.7-0.9c-0.7-0.1-1.4-0.2-2-0.3c-0.6-0.1-1.2-0.1-1.7-0.2c-1-0.1-1.9-0.1-2.5-0.2
				C158.1,146.9,157.7,146.9,157.7,146.9z"/>
			<path id="XMLID_2409_" class="st0" d="M91.6,146.9c0,0-0.3-0.2-0.8-0.4c-0.3-0.1-0.6-0.3-1-0.5c-0.4-0.2-0.8-0.4-1.3-0.6
				c-0.5-0.2-1.1-0.4-1.7-0.7c-0.6-0.2-1.3-0.4-2.1-0.6c-0.8-0.2-1.6-0.3-2.4-0.5c-0.9-0.2-1.8-0.2-2.7-0.4c-1-0.1-2-0.1-3-0.2
				c-1,0-2.1,0-3.2,0c-2.2,0.1-4.5,0.3-6.8,0.6c-1.2,0.2-2.3,0.3-3.5,0.6c-1.2,0.2-2.3,0.4-3.5,0.7c-2.3,0.5-4.7,1-7,1.5
				c-2.3,0.6-4.6,1.1-6.8,1.5c-1.1,0.2-2.2,0.4-3.3,0.7c-1.1,0.2-2.1,0.4-3.2,0.6c-2.1,0.3-4.1,0.6-5.9,0.6c-1.9,0.1-3.6,0-5.2-0.2
				c-1.6-0.2-3-0.6-4.3-1c-1.3-0.5-2.3-1.1-3.2-1.6c-0.4-0.3-0.8-0.5-1.1-0.8c-0.3-0.2-0.6-0.5-0.8-0.7c-0.4-0.4-0.7-0.6-0.7-0.6
				s0.1,0.3,0.3,0.9c0.1,0.3,0.2,0.6,0.4,1c0.2,0.4,0.4,0.9,0.7,1.4c0.6,1,1.4,2.2,2.6,3.3c1.2,1.2,2.8,2.3,4.6,3.1
				c1.9,0.9,4,1.6,6.3,2c2.3,0.4,4.7,0.6,7.1,0.6c1.2,0,2.4-0.1,3.7-0.2c1.2-0.1,2.5-0.2,3.7-0.4c2.5-0.3,4.9-0.9,7.3-1.4
				c2.4-0.6,4.8-1.2,7-1.8c1.1-0.3,2.3-0.6,3.4-1c1.1-0.3,2.2-0.6,3.2-1c2.1-0.6,4.1-1.2,6.1-1.7c1.9-0.5,3.8-1,5.5-1.3
				c1.7-0.4,3.3-0.6,4.7-0.9c0.7-0.1,1.4-0.2,2-0.3c0.6-0.1,1.2-0.1,1.7-0.2c1-0.1,1.9-0.1,2.5-0.2
				C91.3,146.9,91.6,146.9,91.6,146.9z"/>
			<path id="XMLID_2160_" class="st0" d="M109.5,141.7c-10.6,2.6-21.4,8.3-11.8,20.6c1.3,1.7,2.9,3.2,4.5,4.7
				c4,3.4,14,12.4,19.2,20.2c1.6,2.4,2.7,5.1,3.3,7.9l0,0.1l0-0.1c0.6-2.8,1.7-5.5,3.3-7.9c5.2-7.8,15.2-16.8,19.2-20.2
				c1.6-1.4,3.2-3,4.5-4.7c9.6-12.3-1.2-18-11.8-20.6C129.9,139.3,119.5,139.3,109.5,141.7z"/>
			<g id="XMLID_2155_">
				<path id="XMLID_2889_" class="st0" d="M142.5,119c-0.3-0.4-0.5-0.8-0.6-1.2c-0.6-2.3-2.7-10.7-2.4-17.2
					c-0.2,3-0.9,10.8-2.1,14.8c-0.2,0.7-0.2,1.4,0.1,2.1c0.8,1.8,2.3,5.4,3.1,8.4c0.3,1,1,1.8,2,2.1c1.2-1.8,2.4-3.7,3.6-5.8
					C144.7,121.2,143.4,120.1,142.5,119z"/>
				<path id="XMLID_2890_" class="st1" d="M112.6,100.5c0-0.4,0-0.8-0.1-1.2C112.5,99.3,112.5,99.7,112.6,100.5z"/>
				<path id="XMLID_2159_" class="st1" d="M139.4,100.5c0.1-0.8,0.1-1.2,0.1-1.2C139.5,99.7,139.4,100.1,139.4,100.5z"/>
				<path id="XMLID_2158_" class="st0" d="M103.2,113.3c3.3-4.5,2.3-16.1,2.3-16.1c-0.6-5.1,0.1-11.1,4.9-13.9
					c1.4-0.8,3-1.3,4.7-1.5c2.3-0.3,5.4,0,5.6-3.2c0.1-1.8-1.1-3.6-2-5c-2.4-3.8-4-8.7-1.3-12.8c0.9-1.3,2.5-2.8,2.4-4.5
					c-0.2-3.3,3-5.2,6.2-5.2c3.2,0.1,6.4,1.9,6.2,5.2c-0.1,1.7,1.5,3.2,2.4,4.5c2.7,4,1,9-1.3,12.8c-0.9,1.4-2.1,3.2-2,5
					c0.2,3.2,3.3,2.9,5.6,3.2c1.6,0.2,3.2,0.7,4.7,1.5c4.8,2.8,5.5,8.8,4.9,13.9c0,0-1,11.6,2.3,16.1c0,0,0.4,0.5,1,1.3
					c9.7-22.4,11.7-55.3-23.8-94.1c-35.5,38.8-33.6,71.7-23.8,94.1C102.8,113.8,103.2,113.3,103.2,113.3z"/>
				<path id="XMLID_2157_" class="st1" d="M127.7,145L127.7,145C127.7,145,127.7,145,127.7,145C127.7,145,127.7,145,127.7,145z"/>
				<path id="XMLID_2156_" class="st1" d="M124.3,145C124.3,145,124.3,145,124.3,145L124.3,145C124.3,145,124.3,145,124.3,145z"/>
				<path id="XMLID_3032_" class="st0" d="M109.5,119c-0.9,1.1-2.2,2.2-3.6,3.2c1.1,2,2.3,4,3.6,5.8c0.9-0.3,1.7-1.1,2-2.1
					c0.8-3,2.3-6.6,3.1-8.4c0.3-0.7,0.3-1.4,0.1-2.1c-1.2-4-1.8-11.8-2.1-14.8c0.3,6.5-1.8,14.9-2.4,17.2
					C110,118.2,109.8,118.6,109.5,119z"/>
			</g>
			<g id="XMLID_2888_">
				<path id="XMLID_3034_" class="st2" d="M157.2,128c0.7,0.3,1.1,0.4,1.1,0.4C158.1,128.2,157.7,128.1,157.2,128z"/>
				<path id="XMLID_2154_" class="st0" d="M159.6,88.2c-0.9,10.8-4.1,20.4-8.2,28.4c2.4,2.7,6.1,6.3,9.9,8.1c0,0,1.2-1.1,2.9-1.4
					c12.7-14.9,21.1-38.7,10-76.1c-7.1,2.8-13.3,5.9-18.8,9.2C159.1,66.9,160.5,77.6,159.6,88.2z"/>
				<path id="XMLID_3087_" class="st0" d="M157.2,128c-1.9-0.7-5.9-2.4-9.5-4.7c-1,1.7-2.1,3.3-3.1,4.7
					C148.5,127.7,154.5,127.3,157.2,128z"/>
			</g>
			<g id="XMLID_2886_">
				<path id="XMLID_3095_" class="st0" d="M169.8,123.7c0.2-0.6-0.8-0.9-0.8-0.9c-0.4-0.2-1.2,0.3-0.6,0.7
					C169,124,169.6,124.4,169.8,123.7z"/>
				<path id="XMLID_2153_" class="st0" d="M183.3,72c0.9,15.4-1.9,29.1-8.4,41c-1.7,3-3.5,5.8-5.5,8.3c0.7,0.3,2,1,2,2.1l1.3-0.7
					c0.4-0.2,0.9,0.1,0.8,0.6c-0.4,1.4-1.2,3.8-3,5.2c-0.6,0.5-0.8,1.3-0.4,2c2.3,4.5,1.1,7.5-1.5,9.4c18.7-8.9,37.2-28.5,40.7-70.6
					C199.5,69.4,190.9,70.3,183.3,72z"/>
			</g>
			<g id="XMLID_2884_">
				<path id="XMLID_2885_" class="st2" d="M94.7,128c-0.5,0.1-0.8,0.2-1.1,0.4C93.7,128.4,94.1,128.2,94.7,128z"/>
				<path id="XMLID_2152_" class="st0" d="M107.4,128c-1.1-1.5-2.1-3.1-3.1-4.7c-3.6,2.3-7.6,4-9.5,4.7
					C97.5,127.3,103.5,127.7,107.4,128z"/>
				<path id="XMLID_2151_" class="st0" d="M90.6,124.6c3.7-1.8,7.4-5.4,9.9-8.1c-4-8-7.2-17.5-8.2-28.4c-0.9-10.6,0.5-21.2,4.1-31.9
					C91,53,84.8,49.9,77.7,47.1c-11.1,37.4-2.7,61.2,10.1,76.1C89.5,123.6,90.6,124.6,90.6,124.6z"/>
			</g>
			<g id="XMLID_2883_">
				<path id="XMLID_2150_" class="st0" d="M82.2,123.7c0.2,0.6,0.8,0.3,1.4-0.2c0.6-0.5-0.2-0.9-0.6-0.7
					C83,122.8,82,123.1,82.2,123.7z"/>
				<path id="XMLID_2149_" class="st0" d="M82,130.5c0.3-0.7,0.2-1.6-0.4-2c-1.8-1.4-2.6-3.8-3-5.2c-0.1-0.4,0.4-0.8,0.8-0.6
					l1.3,0.7c0-1.1,1.4-1.8,2.1-2.1c-2-2.6-3.8-5.3-5.5-8.4c-6.5-11.8-9.3-25.5-8.4-40.9c-7.6-1.7-16.2-2.6-26-2.7
					c3.5,42.1,22.1,61.7,40.8,70.6C80.9,138,79.7,135.1,82,130.5z"/>
			</g>
		</g>
	</g>
</g>
</svg>
